<?xml version="1.0" standalone="no"?><!DOCTYPE svg PUBLIC "-//W3C//DTD SVG 1.1//EN" "http://www.w3.org/Graphics/SVG/1.1/DTD/svg11.dtd"><svg t="1717937525750" class="icon" viewBox="0 0 1024 1024" version="1.1" xmlns="http://www.w3.org/2000/svg" p-id="5245" xmlns:xlink="http://www.w3.org/1999/xlink" width="16" height="16"><path d="M512 62.7C263.9 62.7 62.7 263.9 62.7 512S263.9 961.3 512 961.3 961.3 760.1 961.3 512 760.1 62.7 512 62.7z m257.6 706.9c-33.5 33.5-72.4 59.8-115.8 78.1-44.9 19-92.5 28.6-141.8 28.6s-96.9-9.6-141.8-28.6c-43.4-18.3-82.3-44.6-115.8-78.1s-59.8-72.4-78.1-115.8c-19-44.9-28.6-92.5-28.6-141.8s9.6-96.9 28.6-141.8c18.3-43.4 44.6-82.3 78.1-115.8s72.4-59.8 115.8-78.1c44.9-19 92.5-28.6 141.8-28.6s96.9 9.6 141.8 28.6c43.4 18.3 82.3 44.6 115.8 78.1s59.8 72.4 78.1 115.8c19 44.9 28.6 92.5 28.6 141.8s-9.6 96.9-28.6 141.8c-18.4 43.3-44.7 82.3-78.1 115.8z" fill="#000000" p-id="5246"></path><path d="M667.1 362.4L462 567.5 356.9 462.4c-16.6-16.6-43.5-16.6-60.1 0s-16.6 43.5 0 60.1L432 657.7c8 8 18.8 12.4 30.1 12.4s22.1-4.5 30.1-12.4l235.1-235.1c16.6-16.6 16.6-43.5 0-60.1-16.7-16.7-43.6-16.7-60.2-0.1z" fill="#000000" p-id="5247"></path></svg>