<?xml version="1.0" standalone="no"?><!DOCTYPE svg PUBLIC "-//W3C//DTD SVG 1.1//EN" "http://www.w3.org/Graphics/SVG/1.1/DTD/svg11.dtd"><svg t="1717937692653" class="icon" viewBox="0 0 1024 1024" version="1.1" xmlns="http://www.w3.org/2000/svg" p-id="24570" xmlns:xlink="http://www.w3.org/1999/xlink" width="16" height="16"><path d="M980.48 512c0 258.56-209.92 468.48-468.48 468.48C253.44 980.48 43.52 770.56 43.52 512 43.52 253.44 253.44 43.52 512 43.52c258.56 0 468.48 209.92 468.48 468.48zM512 107.52c-53.76 0-107.52 10.24-158.72 30.72-48.64 20.48-92.16 48.64-128 87.04-38.4 38.4-66.56 79.36-87.04 128-20.48 51.2-30.72 102.4-30.72 158.72 0 53.76 10.24 107.52 30.72 158.72 20.48 48.64 48.64 92.16 87.04 128 38.4 38.4 79.36 66.56 128 87.04 51.2 20.48 102.4 30.72 158.72 30.72 53.76 0 107.52-10.24 158.72-30.72 48.64-20.48 92.16-48.64 128-87.04 38.4-38.4 66.56-79.36 87.04-128 20.48-51.2 30.72-102.4 30.72-158.72 0-53.76-10.24-107.52-30.72-158.72-20.48-48.64-48.64-92.16-87.04-128-38.4-38.4-79.36-66.56-128-87.04-51.2-20.48-104.96-30.72-158.72-30.72z" fill="#000000" p-id="24571"></path></svg>