<?xml version="1.0" standalone="no"?><!DOCTYPE svg PUBLIC "-//W3C//DTD SVG 1.1//EN" "http://www.w3.org/Graphics/SVG/1.1/DTD/svg11.dtd"><svg t="1718571411046" class="icon" viewBox="0 0 1024 1024" version="1.1" xmlns="http://www.w3.org/2000/svg" p-id="4378" xmlns:xlink="http://www.w3.org/1999/xlink" width="32" height="32"><path d="M672 889.6v6.4h-512v-64h448a256 256 0 0 0 0-512h-256v102.4a26.496 26.496 0 0 1-27.584 25.152 29.056 29.056 0 0 1-16.128-4.8l-200.96-133.824a23.872 23.872 0 0 1-6.4-35.2 26.816 26.816 0 0 1 6.4-5.568l200.96-133.76a29.12 29.12 0 0 1 38.4 5.568 23.68 23.68 0 0 1 5.312 14.848V256h256a320 320 0 0 1 64 633.6z" fill="#ffffff" p-id="4379"></path></svg>